<?xml version="1.0" encoding="iso-8859-1"?>
<!-- Generator: Adobe Illustrator 22.1.0, SVG Export Plug-In . SVG Version: 6.00 Build 0)  -->
<svg xmlns="http://www.w3.org/2000/svg" xmlns:xlink="http://www.w3.org/1999/xlink" version="1.1" id="Layer_3" x="0px" y="0px" viewBox="0 0 64 64" style="enable-background:new 0 0 64 64;" xml:space="preserve" width="512" height="512">
<g>
	<path style="fill:#C2B8B5;" d="M44.347,35.566L53,41c2.209,0,4,1.791,4,4s-1.791,4-4,4s-4-1.791-4-4l-8.35-4.168"/>
	<polyline style="fill:#693D38;" points="25,32 18,34 24,42 17,54 32,55 47,54 40,42 46,34 39,32  "/>
	<polyline style="fill:#C2B8B5;" points="38,29 39,32 32,38 25,32 26,29  "/>
	<path style="fill:#C2B8B5;" d="M43,10L43,10c2.518-1.889,4-4.852,4-8v0h-1c-3.246,0-6.404,1.053-9,3l0,0"/>
	<path style="fill:#999591;" d="M44,29l3-1l-2-6h3l-3-5c0-7.18-5.82-13-13-13h0c-7.18,0-13,5.82-13,13l-3,5h3l-2,6l3,1h7l5,2l5-2H44   z"/>
	<path style="fill:#D1D8DB;" d="M34,17l6-2v2c0,1.657-1.343,3-3,3h0C35.343,20,34,18.657,34,17L34,17z"/>
	<g>
		<path style="fill:#C2B8B5;" d="M32,15c-0.256,0-0.512-0.098-0.707-0.293l-2.019-2.019l-0.38,0.759    c-0.133,0.265-0.376,0.458-0.665,0.526c-0.289,0.067-0.592,0.005-0.829-0.173l-4-3L24.6,9.2l3.042,2.281l0.464-0.928    c0.144-0.288,0.417-0.488,0.734-0.54c0.321-0.05,0.641,0.054,0.867,0.28L32,12.586l2.293-2.293    c0.226-0.227,0.544-0.333,0.867-0.28c0.317,0.052,0.591,0.252,0.734,0.54l0.464,0.928L39.4,9.2l1.199,1.6l-4,3    c-0.238,0.179-0.543,0.242-0.829,0.173c-0.289-0.068-0.532-0.261-0.665-0.526l-0.38-0.759l-2.019,2.019    C32.512,14.902,32.256,15,32,15z"/>
	</g>
	<path style="fill:#999591;" d="M44,2.145c-0.677,0.091-1.344,0.228-2,0.41v1.591c0,0.762-0.424,1.448-1.105,1.789l-0.342,0.171   l0.895,1.789l0.342-0.171C43.152,7.042,44,5.671,44,4.146V2.145z"/>
	<g>
		<polyline style="fill:#573332;" points="40.898,32.542 33,39.454 33,42 31,42 31,38.859 39,32   "/>
	</g>
	<path style="fill:#999591;" d="M52.293,45.707l2.727,2.727c0.585-0.345,1.069-0.829,1.414-1.414l-2.727-2.727L52.293,45.707z"/>
	<path style="fill:#C2B8B5;" d="M19.694,35.565L11,41c-2.209,0-4,1.791-4,4s1.791,4,4,4s4-1.791,4-4l8.387-4.186"/>
	<path style="fill:#999591;" d="M7.566,47.02c0.345,0.585,0.829,1.069,1.414,1.414l2.727-2.727l-1.414-1.414L7.566,47.02z"/>
	<polyline style="fill:#C2B8B5;" points="41,54 40,58 35,58 35,54  "/>
	<polyline style="fill:#C2B8B5;" points="23,54 24,58 29,58 29,54  "/>
	<polyline style="fill:#573332;" points="33,46 33,50 37,50 37,46  "/>
	<polygon style="fill:#74564A;" points="21.667,46 42.333,46 40,42 24,42  "/>
	<path style="fill:#999591;" d="M29,58h-6c-2.209,0-4,1.791-4,4v0h10V58z"/>
	<path style="fill:#999591;" d="M35,58h6c2.209,0,4,1.791,4,4v0H35V58z"/>
	<path style="fill:#C2B8B5;" d="M21,10L21,10c-2.518-1.889-4-4.852-4-8v0h1c3.246,0,6.404,1.053,9,3l0,0"/>
	<path style="fill:#657B88;" d="M35,24c0,1.105-1.343,3-3,3c-1.657,0-3-1.895-3-3s1.343-1,3-1C33.657,23,35,22.895,35,24z"/>
	<path style="fill:#D1D8DB;" d="M30,17l-6-2v2c0,1.657,1.343,3,3,3h0C28.657,20,30,18.657,30,17L30,17z"/>
	<path style="fill:#999591;" d="M22.211,7.724l0.342,0.171l0.895-1.789l-0.342-0.171C22.424,5.594,22,4.908,22,4.146V2.555   c-0.656-0.182-1.323-0.319-2-0.41v2.001C20,5.671,20.848,7.042,22.211,7.724z"/>
</g>
</svg>
